<?xml version="1.0" encoding="utf-8"?>
<!-- Generator: Adobe Illustrator 22.1.0, SVG Export Plug-In . SVG Version: 6.00 Build 0)  -->
<svg version="1.1" id="Layer_1" xmlns="http://www.w3.org/2000/svg" xmlns:xlink="http://www.w3.org/1999/xlink" x="0px" y="0px"
	 width="218.1424408px" height="218.1424408px" viewBox="0 0 218.1424408 218.1424408"
	 style="enable-background:new 0 0 218.1424408 218.1424408;" xml:space="preserve">
<style type="text/css">
	.st0{clip-path:url(#SVGID_2_);}
	.st1{fill:#030303;}
	.st2{fill:#0A170D;stroke:#030303;stroke-width:8;stroke-miterlimit:10;}
	.st3{fill:#1C190B;stroke:#030303;stroke-width:8;stroke-miterlimit:10;}
	.st4{fill:#12090B;stroke:#030303;stroke-width:8;stroke-miterlimit:10;}
	.st5{fill:#0B141C;stroke:#030303;stroke-width:8;stroke-miterlimit:10;}
	.st6{clip-path:url(#SVGID_4_);}
	.st7{clip-path:url(#SVGID_6_);}
	.st8{clip-path:url(#SVGID_8_);}
	.st9{clip-path:url(#SVGID_10_);}
	.st10{clip-path:url(#SVGID_12_);}
	.st11{clip-path:url(#SVGID_14_);}
	.st12{clip-path:url(#SVGID_16_);}
	.st13{clip-path:url(#SVGID_18_);}
	.st14{clip-path:url(#SVGID_20_);}
	.st15{clip-path:url(#SVGID_22_);}
	.st16{clip-path:url(#SVGID_24_);}
	.st17{clip-path:url(#SVGID_26_);}
	.st18{clip-path:url(#SVGID_28_);}
	.st19{clip-path:url(#SVGID_30_);}
	.st20{clip-path:url(#SVGID_32_);}
	.st21{clip-path:url(#SVGID_34_);}
	.st22{clip-path:url(#SVGID_36_);}
	.st23{clip-path:url(#SVGID_38_);}
	.st24{clip-path:url(#SVGID_40_);}
</style>
<g>
	<g>
		<defs>
			<rect id="SVGID_1_" y="109.0712204" width="109.0712204" height="109.0712204"/>
		</defs>
		<clipPath id="SVGID_2_">
			<use xlink:href="#SVGID_1_"  style="overflow:visible;"/>
		</clipPath>
		<g class="st0">
			<rect x="-15.1338358" y="98.1175537" class="st1" width="139.3388977" height="130.9785614"/>
			<g>
				<circle class="st2" cx="-0.0000003" cy="177.2407379" r="9.640625"/>
				<circle class="st3" cx="13.6339025" cy="190.8746338" r="9.640625"/>
				<circle class="st4" cx="-0.0000003" cy="204.5085449" r="9.640625"/>
				<circle class="st5" cx="13.6339025" cy="163.6068268" r="9.640625"/>
				<circle class="st2" cx="27.2678051" cy="149.9729309" r="9.640625"/>
				<circle class="st3" cx="40.9017067" cy="163.6068268" r="9.640625"/>
				<circle class="st4" cx="27.2678051" cy="177.2407379" r="9.640625"/>
				<circle class="st5" cx="-0.0000003" cy="122.7051239" r="9.640625"/>
				<circle class="st3" cx="-0.0000003" cy="149.9729309" r="9.640625"/>
				<circle class="st4" cx="13.6339025" cy="136.3390198" r="9.640625"/>
				<circle class="st5" cx="40.9017067" cy="136.3390198" r="9.640625"/>
				<circle class="st2" cx="54.5356102" cy="122.7051239" r="9.640625"/>
				<circle class="st3" cx="68.1695099" cy="136.3390198" r="9.640625"/>
				<circle class="st4" cx="54.5356102" cy="149.9729309" r="9.640625"/>
				<circle class="st2" cx="13.6339025" cy="109.0712204" r="9.640625"/>
				<circle class="st3" cx="27.2678051" cy="122.7051239" r="9.640625"/>
				<circle class="st4" cx="40.9017067" cy="109.0712204" r="9.640625"/>
				<circle class="st5" cx="68.1695099" cy="109.0712204" r="9.640625"/>
				<circle class="st3" cx="95.4373169" cy="109.0712204" r="9.640625"/>
				<circle class="st4" cx="81.8034134" cy="122.7051239" r="9.640625"/>
				<circle class="st5" cx="27.2678051" cy="204.5085449" r="9.640625"/>
				<circle class="st2" cx="13.6339025" cy="218.1424408" r="9.640625"/>
				<circle class="st4" cx="40.9017067" cy="218.1424408" r="9.640625"/>
				<circle class="st5" cx="68.1695099" cy="218.1424408" r="9.640625"/>
				<circle class="st2" cx="81.8034134" cy="204.5085449" r="9.640625"/>
				<circle class="st3" cx="95.4373169" cy="218.1424408" r="9.640625"/>
				<circle class="st5" cx="54.5356102" cy="177.2407379" r="9.640625"/>
				<circle class="st2" cx="40.9017067" cy="190.8746338" r="9.640625"/>
				<circle class="st3" cx="54.5356102" cy="204.5085449" r="9.640625"/>
				<circle class="st4" cx="68.1695099" cy="190.8746338" r="9.640625"/>
				<circle class="st5" cx="95.4373169" cy="190.8746338" r="9.640625"/>
				<circle class="st2" cx="109.0712204" cy="177.2407379" r="9.640625"/>
				<circle class="st4" cx="109.0712204" cy="204.5085449" r="9.640625"/>
				<circle class="st5" cx="81.8034134" cy="149.9729309" r="9.640625"/>
				<circle class="st2" cx="68.1695099" cy="163.6068268" r="9.640625"/>
				<circle class="st3" cx="81.8034134" cy="177.2407379" r="9.640625"/>
				<circle class="st4" cx="95.4373169" cy="163.6068268" r="9.640625"/>
				<circle class="st5" cx="109.0712204" cy="122.7051239" r="9.640625"/>
				<circle class="st2" cx="95.4373169" cy="136.3390198" r="9.640625"/>
				<circle class="st3" cx="109.0712204" cy="149.9729309" r="9.640625"/>
			</g>
		</g>
	</g>
</g>
<g>
	<g>
		<defs>
			<rect id="SVGID_3_" width="109.0712204" height="109.0712204"/>
		</defs>
		<clipPath id="SVGID_4_">
			<use xlink:href="#SVGID_3_"  style="overflow:visible;"/>
		</clipPath>
		<g class="st6">
			<rect x="-15.1338358" y="-10.9536695" class="st1" width="139.3388977" height="130.9785614"/>
			<g>
				<circle class="st2" cx="-0.0000003" cy="68.1695099" r="9.640625"/>
				<circle class="st3" cx="13.6339025" cy="81.8034134" r="9.640625"/>
				<circle class="st4" cx="-0.0000003" cy="95.4373169" r="9.640625"/>
				<circle class="st5" cx="13.6339025" cy="54.5356102" r="9.640625"/>
				<circle class="st2" cx="27.2678051" cy="40.9017067" r="9.640625"/>
				<circle class="st3" cx="40.9017067" cy="54.5356102" r="9.640625"/>
				<circle class="st4" cx="27.2678051" cy="68.1695099" r="9.640625"/>
				<circle class="st5" cx="-0.0000003" cy="13.6339025" r="9.640625"/>
				<circle class="st3" cx="-0.0000003" cy="40.9017067" r="9.640625"/>
				<circle class="st4" cx="13.6339025" cy="27.2678051" r="9.640625"/>
				<circle class="st5" cx="40.9017067" cy="27.2678051" r="9.640625"/>
				<circle class="st2" cx="54.5356102" cy="13.6339025" r="9.640625"/>
				<circle class="st3" cx="68.1695099" cy="27.2678051" r="9.640625"/>
				<circle class="st4" cx="54.5356102" cy="40.9017067" r="9.640625"/>
				<circle class="st2" cx="13.6339025" cy="-0.0000003" r="9.640625"/>
				<circle class="st3" cx="27.2678051" cy="13.6339025" r="9.640625"/>
				<circle class="st4" cx="40.9017067" cy="-0.0000003" r="9.640625"/>
				<circle class="st5" cx="68.1695099" cy="-0.0000003" r="9.640625"/>
				<circle class="st3" cx="95.4373169" cy="-0.0000003" r="9.640625"/>
				<circle class="st4" cx="81.8034134" cy="13.6339025" r="9.640625"/>
				<circle class="st5" cx="27.2678051" cy="95.4373169" r="9.640625"/>
				<circle class="st2" cx="13.6339025" cy="109.0712204" r="9.640625"/>
				<circle class="st4" cx="40.9017067" cy="109.0712204" r="9.640625"/>
				<circle class="st5" cx="68.1695099" cy="109.0712204" r="9.640625"/>
				<circle class="st2" cx="81.8034134" cy="95.4373169" r="9.640625"/>
				<circle class="st3" cx="95.4373169" cy="109.0712204" r="9.640625"/>
				<circle class="st5" cx="54.5356102" cy="68.1695099" r="9.640625"/>
				<circle class="st2" cx="40.9017067" cy="81.8034134" r="9.640625"/>
				<circle class="st3" cx="54.5356102" cy="95.4373169" r="9.640625"/>
				<circle class="st4" cx="68.1695099" cy="81.8034134" r="9.640625"/>
				<circle class="st5" cx="95.4373169" cy="81.8034134" r="9.640625"/>
				<circle class="st2" cx="109.0712204" cy="68.1695099" r="9.640625"/>
				<circle class="st4" cx="109.0712204" cy="95.4373169" r="9.640625"/>
				<circle class="st5" cx="81.8034134" cy="40.9017067" r="9.640625"/>
				<circle class="st2" cx="68.1695099" cy="54.5356102" r="9.640625"/>
				<circle class="st3" cx="81.8034134" cy="68.1695099" r="9.640625"/>
				<circle class="st4" cx="95.4373169" cy="54.5356102" r="9.640625"/>
				<circle class="st5" cx="109.0712204" cy="13.6339025" r="9.640625"/>
				<circle class="st2" cx="95.4373169" cy="27.2678051" r="9.640625"/>
				<circle class="st3" cx="109.0712204" cy="40.9017067" r="9.640625"/>
			</g>
		</g>
	</g>
</g>
<g>
	<g>
		<defs>
			<rect id="SVGID_5_" x="109.0712204" y="109.0712204" width="109.0712204" height="109.0712204"/>
		</defs>
		<clipPath id="SVGID_6_">
			<use xlink:href="#SVGID_5_"  style="overflow:visible;"/>
		</clipPath>
		<g class="st7">
			<rect x="93.9373856" y="98.1175537" class="st1" width="139.3388977" height="130.9785614"/>
			<g>
				<circle class="st2" cx="109.0712204" cy="177.2407379" r="9.640625"/>
				<circle class="st3" cx="122.7051239" cy="190.8746338" r="9.640625"/>
				<circle class="st4" cx="109.0712204" cy="204.5085449" r="9.640625"/>
				<circle class="st5" cx="122.7051239" cy="163.6068268" r="9.640625"/>
				<circle class="st2" cx="136.3390198" cy="149.9729309" r="9.640625"/>
				<circle class="st3" cx="149.9729309" cy="163.6068268" r="9.640625"/>
				<circle class="st4" cx="136.3390198" cy="177.2407379" r="9.640625"/>
				<circle class="st5" cx="109.0712204" cy="122.7051239" r="9.640625"/>
				<circle class="st3" cx="109.0712204" cy="149.9729309" r="9.640625"/>
				<circle class="st4" cx="122.7051239" cy="136.3390198" r="9.640625"/>
				<circle class="st5" cx="149.9729309" cy="136.3390198" r="9.640625"/>
				<circle class="st2" cx="163.6068268" cy="122.7051239" r="9.640625"/>
				<circle class="st3" cx="177.2407379" cy="136.3390198" r="9.640625"/>
				<circle class="st4" cx="163.6068268" cy="149.9729309" r="9.640625"/>
				<circle class="st2" cx="122.7051239" cy="109.0712204" r="9.640625"/>
				<circle class="st3" cx="136.3390198" cy="122.7051239" r="9.640625"/>
				<circle class="st4" cx="149.9729309" cy="109.0712204" r="9.640625"/>
				<circle class="st5" cx="177.2407379" cy="109.0712204" r="9.640625"/>
				<circle class="st3" cx="204.5085449" cy="109.0712204" r="9.640625"/>
				<circle class="st4" cx="190.8746338" cy="122.7051239" r="9.640625"/>
				<circle class="st5" cx="136.3390198" cy="204.5085449" r="9.640625"/>
				<circle class="st2" cx="122.7051239" cy="218.1424408" r="9.640625"/>
				<circle class="st4" cx="149.9729309" cy="218.1424408" r="9.640625"/>
				<circle class="st5" cx="177.2407379" cy="218.1424408" r="9.640625"/>
				<circle class="st2" cx="190.8746338" cy="204.5085449" r="9.640625"/>
				<circle class="st3" cx="204.5085449" cy="218.1424408" r="9.640625"/>
				<circle class="st5" cx="163.6068268" cy="177.2407379" r="9.640625"/>
				<circle class="st2" cx="149.9729309" cy="190.8746338" r="9.640625"/>
				<circle class="st3" cx="163.6068268" cy="204.5085449" r="9.640625"/>
				<circle class="st4" cx="177.2407379" cy="190.8746338" r="9.640625"/>
				<circle class="st5" cx="204.5085449" cy="190.8746338" r="9.640625"/>
				<circle class="st2" cx="218.1424408" cy="177.2407379" r="9.640625"/>
				<circle class="st4" cx="218.1424408" cy="204.5085449" r="9.640625"/>
				<circle class="st5" cx="190.8746338" cy="149.9729309" r="9.640625"/>
				<circle class="st2" cx="177.2407379" cy="163.6068268" r="9.640625"/>
				<circle class="st3" cx="190.8746338" cy="177.2407379" r="9.640625"/>
				<circle class="st4" cx="204.5085449" cy="163.6068268" r="9.640625"/>
				<circle class="st5" cx="218.1424408" cy="122.7051239" r="9.640625"/>
				<circle class="st2" cx="204.5085449" cy="136.3390198" r="9.640625"/>
				<circle class="st3" cx="218.1424408" cy="149.9729309" r="9.640625"/>
			</g>
		</g>
	</g>
</g>
<g>
	<g>
		<defs>
			<rect id="SVGID_7_" x="109.0712204" width="109.0712204" height="109.0712204"/>
		</defs>
		<clipPath id="SVGID_8_">
			<use xlink:href="#SVGID_7_"  style="overflow:visible;"/>
		</clipPath>
		<g class="st8">
			<rect x="93.9373856" y="-10.9536695" class="st1" width="139.3388977" height="130.9785614"/>
			<g>
				<circle class="st2" cx="109.0712204" cy="68.1695099" r="9.640625"/>
				<circle class="st3" cx="122.7051239" cy="81.8034134" r="9.640625"/>
				<circle class="st4" cx="109.0712204" cy="95.4373169" r="9.640625"/>
				<circle class="st5" cx="122.7051239" cy="54.5356102" r="9.640625"/>
				<circle class="st2" cx="136.3390198" cy="40.9017067" r="9.640625"/>
				<circle class="st3" cx="149.9729309" cy="54.5356102" r="9.640625"/>
				<circle class="st4" cx="136.3390198" cy="68.1695099" r="9.640625"/>
				<circle class="st5" cx="109.0712204" cy="13.6339025" r="9.640625"/>
				<circle class="st3" cx="109.0712204" cy="40.9017067" r="9.640625"/>
				<circle class="st4" cx="122.7051239" cy="27.2678051" r="9.640625"/>
				<circle class="st5" cx="149.9729309" cy="27.2678051" r="9.640625"/>
				<circle class="st2" cx="163.6068268" cy="13.6339025" r="9.640625"/>
				<circle class="st3" cx="177.2407379" cy="27.2678051" r="9.640625"/>
				<circle class="st4" cx="163.6068268" cy="40.9017067" r="9.640625"/>
				<circle class="st2" cx="122.7051239" cy="-0.0000003" r="9.640625"/>
				<circle class="st3" cx="136.3390198" cy="13.6339025" r="9.640625"/>
				<circle class="st4" cx="149.9729309" cy="-0.0000003" r="9.640625"/>
				<circle class="st5" cx="177.2407379" cy="-0.0000003" r="9.640625"/>
				<circle class="st3" cx="204.5085449" cy="-0.0000003" r="9.640625"/>
				<circle class="st4" cx="190.8746338" cy="13.6339025" r="9.640625"/>
				<circle class="st5" cx="136.3390198" cy="95.4373169" r="9.640625"/>
				<circle class="st2" cx="122.7051239" cy="109.0712204" r="9.640625"/>
				<circle class="st4" cx="149.9729309" cy="109.0712204" r="9.640625"/>
				<circle class="st5" cx="177.2407379" cy="109.0712204" r="9.640625"/>
				<circle class="st2" cx="190.8746338" cy="95.4373169" r="9.640625"/>
				<circle class="st3" cx="204.5085449" cy="109.0712204" r="9.640625"/>
				<circle class="st5" cx="163.6068268" cy="68.1695099" r="9.640625"/>
				<circle class="st2" cx="149.9729309" cy="81.8034134" r="9.640625"/>
				<circle class="st3" cx="163.6068268" cy="95.4373169" r="9.640625"/>
				<circle class="st4" cx="177.2407379" cy="81.8034134" r="9.640625"/>
				<circle class="st5" cx="204.5085449" cy="81.8034134" r="9.640625"/>
				<circle class="st2" cx="218.1424408" cy="68.1695099" r="9.640625"/>
				<circle class="st4" cx="218.1424408" cy="95.4373169" r="9.640625"/>
				<circle class="st5" cx="190.8746338" cy="40.9017067" r="9.640625"/>
				<circle class="st2" cx="177.2407379" cy="54.5356102" r="9.640625"/>
				<circle class="st3" cx="190.8746338" cy="68.1695099" r="9.640625"/>
				<circle class="st4" cx="204.5085449" cy="54.5356102" r="9.640625"/>
				<circle class="st5" cx="218.1424408" cy="13.6339025" r="9.640625"/>
				<circle class="st2" cx="204.5085449" cy="27.2678051" r="9.640625"/>
				<circle class="st3" cx="218.1424408" cy="40.9017067" r="9.640625"/>
			</g>
		</g>
	</g>
</g>
<g>
	<g>
		<defs>
			<rect id="SVGID_9_" y="109.0712204" width="109.0712204" height="109.0712204"/>
		</defs>
		<clipPath id="SVGID_10_">
			<use xlink:href="#SVGID_9_"  style="overflow:visible;"/>
		</clipPath>
		<g class="st9">
			<rect x="-15.1338358" y="98.1175537" class="st1" width="139.3388977" height="130.9785614"/>
			<g>
				<circle class="st2" cx="-0.0000003" cy="177.2407379" r="9.640625"/>
				<circle class="st3" cx="13.6339025" cy="190.8746338" r="9.640625"/>
				<circle class="st4" cx="-0.0000003" cy="204.5085449" r="9.640625"/>
				<circle class="st5" cx="13.6339025" cy="163.6068268" r="9.640625"/>
				<circle class="st2" cx="27.2678051" cy="149.9729309" r="9.640625"/>
				<circle class="st3" cx="40.9017067" cy="163.6068268" r="9.640625"/>
				<circle class="st4" cx="27.2678051" cy="177.2407379" r="9.640625"/>
				<circle class="st5" cx="-0.0000003" cy="122.7051239" r="9.640625"/>
				<circle class="st3" cx="-0.0000003" cy="149.9729309" r="9.640625"/>
				<circle class="st4" cx="13.6339025" cy="136.3390198" r="9.640625"/>
				<circle class="st5" cx="40.9017067" cy="136.3390198" r="9.640625"/>
				<circle class="st2" cx="54.5356102" cy="122.7051239" r="9.640625"/>
				<circle class="st3" cx="68.1695099" cy="136.3390198" r="9.640625"/>
				<circle class="st4" cx="54.5356102" cy="149.9729309" r="9.640625"/>
				<circle class="st2" cx="13.6339025" cy="109.0712204" r="9.640625"/>
				<circle class="st3" cx="27.2678051" cy="122.7051239" r="9.640625"/>
				<circle class="st4" cx="40.9017067" cy="109.0712204" r="9.640625"/>
				<circle class="st5" cx="68.1695099" cy="109.0712204" r="9.640625"/>
				<circle class="st3" cx="95.4373169" cy="109.0712204" r="9.640625"/>
				<circle class="st4" cx="81.8034134" cy="122.7051239" r="9.640625"/>
				<circle class="st5" cx="27.2678051" cy="204.5085449" r="9.640625"/>
				<circle class="st2" cx="13.6339025" cy="218.1424408" r="9.640625"/>
				<circle class="st4" cx="40.9017067" cy="218.1424408" r="9.640625"/>
				<circle class="st5" cx="68.1695099" cy="218.1424408" r="9.640625"/>
				<circle class="st2" cx="81.8034134" cy="204.5085449" r="9.640625"/>
				<circle class="st3" cx="95.4373169" cy="218.1424408" r="9.640625"/>
				<circle class="st5" cx="54.5356102" cy="177.2407379" r="9.640625"/>
				<circle class="st2" cx="40.9017067" cy="190.8746338" r="9.640625"/>
				<circle class="st3" cx="54.5356102" cy="204.5085449" r="9.640625"/>
				<circle class="st4" cx="68.1695099" cy="190.8746338" r="9.640625"/>
				<circle class="st5" cx="95.4373169" cy="190.8746338" r="9.640625"/>
				<circle class="st2" cx="109.0712204" cy="177.2407379" r="9.640625"/>
				<circle class="st4" cx="109.0712204" cy="204.5085449" r="9.640625"/>
				<circle class="st5" cx="81.8034134" cy="149.9729309" r="9.640625"/>
				<circle class="st2" cx="68.1695099" cy="163.6068268" r="9.640625"/>
				<circle class="st3" cx="81.8034134" cy="177.2407379" r="9.640625"/>
				<circle class="st4" cx="95.4373169" cy="163.6068268" r="9.640625"/>
				<circle class="st5" cx="109.0712204" cy="122.7051239" r="9.640625"/>
				<circle class="st2" cx="95.4373169" cy="136.3390198" r="9.640625"/>
				<circle class="st3" cx="109.0712204" cy="149.9729309" r="9.640625"/>
			</g>
		</g>
	</g>
</g>
<g>
	<g>
		<defs>
			<rect id="SVGID_11_" width="109.0712204" height="109.0712204"/>
		</defs>
		<clipPath id="SVGID_12_">
			<use xlink:href="#SVGID_11_"  style="overflow:visible;"/>
		</clipPath>
		<g class="st10">
			<rect x="-15.1338358" y="-10.9536695" class="st1" width="139.3388977" height="130.9785614"/>
			<g>
				<circle class="st2" cx="-0.0000003" cy="68.1695099" r="9.640625"/>
				<circle class="st3" cx="13.6339025" cy="81.8034134" r="9.640625"/>
				<circle class="st4" cx="-0.0000003" cy="95.4373169" r="9.640625"/>
				<circle class="st5" cx="13.6339025" cy="54.5356102" r="9.640625"/>
				<circle class="st2" cx="27.2678051" cy="40.9017067" r="9.640625"/>
				<circle class="st3" cx="40.9017067" cy="54.5356102" r="9.640625"/>
				<circle class="st4" cx="27.2678051" cy="68.1695099" r="9.640625"/>
				<circle class="st5" cx="-0.0000003" cy="13.6339025" r="9.640625"/>
				<circle class="st3" cx="-0.0000003" cy="40.9017067" r="9.640625"/>
				<circle class="st4" cx="13.6339025" cy="27.2678051" r="9.640625"/>
				<circle class="st5" cx="40.9017067" cy="27.2678051" r="9.640625"/>
				<circle class="st2" cx="54.5356102" cy="13.6339025" r="9.640625"/>
				<circle class="st3" cx="68.1695099" cy="27.2678051" r="9.640625"/>
				<circle class="st4" cx="54.5356102" cy="40.9017067" r="9.640625"/>
				<circle class="st2" cx="13.6339025" cy="-0.0000003" r="9.640625"/>
				<circle class="st3" cx="27.2678051" cy="13.6339025" r="9.640625"/>
				<circle class="st4" cx="40.9017067" cy="-0.0000003" r="9.640625"/>
				<circle class="st5" cx="68.1695099" cy="-0.0000003" r="9.640625"/>
				<circle class="st3" cx="95.4373169" cy="-0.0000003" r="9.640625"/>
				<circle class="st4" cx="81.8034134" cy="13.6339025" r="9.640625"/>
				<circle class="st5" cx="27.2678051" cy="95.4373169" r="9.640625"/>
				<circle class="st2" cx="13.6339025" cy="109.0712204" r="9.640625"/>
				<circle class="st4" cx="40.9017067" cy="109.0712204" r="9.640625"/>
				<circle class="st5" cx="68.1695099" cy="109.0712204" r="9.640625"/>
				<circle class="st2" cx="81.8034134" cy="95.4373169" r="9.640625"/>
				<circle class="st3" cx="95.4373169" cy="109.0712204" r="9.640625"/>
				<circle class="st5" cx="54.5356102" cy="68.1695099" r="9.640625"/>
				<circle class="st2" cx="40.9017067" cy="81.8034134" r="9.640625"/>
				<circle class="st3" cx="54.5356102" cy="95.4373169" r="9.640625"/>
				<circle class="st4" cx="68.1695099" cy="81.8034134" r="9.640625"/>
				<circle class="st5" cx="95.4373169" cy="81.8034134" r="9.640625"/>
				<circle class="st2" cx="109.0712204" cy="68.1695099" r="9.640625"/>
				<circle class="st4" cx="109.0712204" cy="95.4373169" r="9.640625"/>
				<circle class="st5" cx="81.8034134" cy="40.9017067" r="9.640625"/>
				<circle class="st2" cx="68.1695099" cy="54.5356102" r="9.640625"/>
				<circle class="st3" cx="81.8034134" cy="68.1695099" r="9.640625"/>
				<circle class="st4" cx="95.4373169" cy="54.5356102" r="9.640625"/>
				<circle class="st5" cx="109.0712204" cy="13.6339025" r="9.640625"/>
				<circle class="st2" cx="95.4373169" cy="27.2678051" r="9.640625"/>
				<circle class="st3" cx="109.0712204" cy="40.9017067" r="9.640625"/>
			</g>
		</g>
	</g>
</g>
<g>
	<g>
		<defs>
			<rect id="SVGID_13_" x="109.0712204" y="109.0712204" width="109.0712204" height="109.0712204"/>
		</defs>
		<clipPath id="SVGID_14_">
			<use xlink:href="#SVGID_13_"  style="overflow:visible;"/>
		</clipPath>
		<g class="st11">
			<rect x="93.9373856" y="98.1175537" class="st1" width="139.3388977" height="130.9785614"/>
			<g>
				<circle class="st2" cx="109.0712204" cy="177.2407379" r="9.640625"/>
				<circle class="st3" cx="122.7051239" cy="190.8746338" r="9.640625"/>
				<circle class="st4" cx="109.0712204" cy="204.5085449" r="9.640625"/>
				<circle class="st5" cx="122.7051239" cy="163.6068268" r="9.640625"/>
				<circle class="st2" cx="136.3390198" cy="149.9729309" r="9.640625"/>
				<circle class="st3" cx="149.9729309" cy="163.6068268" r="9.640625"/>
				<circle class="st4" cx="136.3390198" cy="177.2407379" r="9.640625"/>
				<circle class="st5" cx="109.0712204" cy="122.7051239" r="9.640625"/>
				<circle class="st3" cx="109.0712204" cy="149.9729309" r="9.640625"/>
				<circle class="st4" cx="122.7051239" cy="136.3390198" r="9.640625"/>
				<circle class="st5" cx="149.9729309" cy="136.3390198" r="9.640625"/>
				<circle class="st2" cx="163.6068268" cy="122.7051239" r="9.640625"/>
				<circle class="st3" cx="177.2407379" cy="136.3390198" r="9.640625"/>
				<circle class="st4" cx="163.6068268" cy="149.9729309" r="9.640625"/>
				<circle class="st2" cx="122.7051239" cy="109.0712204" r="9.640625"/>
				<circle class="st3" cx="136.3390198" cy="122.7051239" r="9.640625"/>
				<circle class="st4" cx="149.9729309" cy="109.0712204" r="9.640625"/>
				<circle class="st5" cx="177.2407379" cy="109.0712204" r="9.640625"/>
				<circle class="st3" cx="204.5085449" cy="109.0712204" r="9.640625"/>
				<circle class="st4" cx="190.8746338" cy="122.7051239" r="9.640625"/>
				<circle class="st5" cx="136.3390198" cy="204.5085449" r="9.640625"/>
				<circle class="st2" cx="122.7051239" cy="218.1424408" r="9.640625"/>
				<circle class="st4" cx="149.9729309" cy="218.1424408" r="9.640625"/>
				<circle class="st5" cx="177.2407379" cy="218.1424408" r="9.640625"/>
				<circle class="st2" cx="190.8746338" cy="204.5085449" r="9.640625"/>
				<circle class="st3" cx="204.5085449" cy="218.1424408" r="9.640625"/>
				<circle class="st5" cx="163.6068268" cy="177.2407379" r="9.640625"/>
				<circle class="st2" cx="149.9729309" cy="190.8746338" r="9.640625"/>
				<circle class="st3" cx="163.6068268" cy="204.5085449" r="9.640625"/>
				<circle class="st4" cx="177.2407379" cy="190.8746338" r="9.640625"/>
				<circle class="st5" cx="204.5085449" cy="190.8746338" r="9.640625"/>
				<circle class="st2" cx="218.1424408" cy="177.2407379" r="9.640625"/>
				<circle class="st4" cx="218.1424408" cy="204.5085449" r="9.640625"/>
				<circle class="st5" cx="190.8746338" cy="149.9729309" r="9.640625"/>
				<circle class="st2" cx="177.2407379" cy="163.6068268" r="9.640625"/>
				<circle class="st3" cx="190.8746338" cy="177.2407379" r="9.640625"/>
				<circle class="st4" cx="204.5085449" cy="163.6068268" r="9.640625"/>
				<circle class="st5" cx="218.1424408" cy="122.7051239" r="9.640625"/>
				<circle class="st2" cx="204.5085449" cy="136.3390198" r="9.640625"/>
				<circle class="st3" cx="218.1424408" cy="149.9729309" r="9.640625"/>
			</g>
		</g>
	</g>
</g>
<g>
	<g>
		<defs>
			<rect id="SVGID_15_" x="109.0712204" width="109.0712204" height="109.0712204"/>
		</defs>
		<clipPath id="SVGID_16_">
			<use xlink:href="#SVGID_15_"  style="overflow:visible;"/>
		</clipPath>
		<g class="st12">
			<rect x="93.9373856" y="-10.9536695" class="st1" width="139.3388977" height="130.9785614"/>
			<g>
				<circle class="st2" cx="109.0712204" cy="68.1695099" r="9.640625"/>
				<circle class="st3" cx="122.7051239" cy="81.8034134" r="9.640625"/>
				<circle class="st4" cx="109.0712204" cy="95.4373169" r="9.640625"/>
				<circle class="st5" cx="122.7051239" cy="54.5356102" r="9.640625"/>
				<circle class="st2" cx="136.3390198" cy="40.9017067" r="9.640625"/>
				<circle class="st3" cx="149.9729309" cy="54.5356102" r="9.640625"/>
				<circle class="st4" cx="136.3390198" cy="68.1695099" r="9.640625"/>
				<circle class="st5" cx="109.0712204" cy="13.6339025" r="9.640625"/>
				<circle class="st3" cx="109.0712204" cy="40.9017067" r="9.640625"/>
				<circle class="st4" cx="122.7051239" cy="27.2678051" r="9.640625"/>
				<circle class="st5" cx="149.9729309" cy="27.2678051" r="9.640625"/>
				<circle class="st2" cx="163.6068268" cy="13.6339025" r="9.640625"/>
				<circle class="st3" cx="177.2407379" cy="27.2678051" r="9.640625"/>
				<circle class="st4" cx="163.6068268" cy="40.9017067" r="9.640625"/>
				<circle class="st2" cx="122.7051239" cy="-0.0000003" r="9.640625"/>
				<circle class="st3" cx="136.3390198" cy="13.6339025" r="9.640625"/>
				<circle class="st4" cx="149.9729309" cy="-0.0000003" r="9.640625"/>
				<circle class="st5" cx="177.2407379" cy="-0.0000003" r="9.640625"/>
				<circle class="st3" cx="204.5085449" cy="-0.0000003" r="9.640625"/>
				<circle class="st4" cx="190.8746338" cy="13.6339025" r="9.640625"/>
				<circle class="st5" cx="136.3390198" cy="95.4373169" r="9.640625"/>
				<circle class="st2" cx="122.7051239" cy="109.0712204" r="9.640625"/>
				<circle class="st4" cx="149.9729309" cy="109.0712204" r="9.640625"/>
				<circle class="st5" cx="177.2407379" cy="109.0712204" r="9.640625"/>
				<circle class="st2" cx="190.8746338" cy="95.4373169" r="9.640625"/>
				<circle class="st3" cx="204.5085449" cy="109.0712204" r="9.640625"/>
				<circle class="st5" cx="163.6068268" cy="68.1695099" r="9.640625"/>
				<circle class="st2" cx="149.9729309" cy="81.8034134" r="9.640625"/>
				<circle class="st3" cx="163.6068268" cy="95.4373169" r="9.640625"/>
				<circle class="st4" cx="177.2407379" cy="81.8034134" r="9.640625"/>
				<circle class="st5" cx="204.5085449" cy="81.8034134" r="9.640625"/>
				<circle class="st2" cx="218.1424408" cy="68.1695099" r="9.640625"/>
				<circle class="st4" cx="218.1424408" cy="95.4373169" r="9.640625"/>
				<circle class="st5" cx="190.8746338" cy="40.9017067" r="9.640625"/>
				<circle class="st2" cx="177.2407379" cy="54.5356102" r="9.640625"/>
				<circle class="st3" cx="190.8746338" cy="68.1695099" r="9.640625"/>
				<circle class="st4" cx="204.5085449" cy="54.5356102" r="9.640625"/>
				<circle class="st5" cx="218.1424408" cy="13.6339025" r="9.640625"/>
				<circle class="st2" cx="204.5085449" cy="27.2678051" r="9.640625"/>
				<circle class="st3" cx="218.1424408" cy="40.9017067" r="9.640625"/>
			</g>
		</g>
	</g>
</g>
<g>
	<g>
		<defs>
			<rect id="SVGID_17_" y="-109.0712204" width="109.0712204" height="109.0712204"/>
		</defs>
		<clipPath id="SVGID_18_">
			<use xlink:href="#SVGID_17_"  style="overflow:visible;"/>
		</clipPath>
		<g class="st13">
			<rect x="-15.1338358" y="-120.0248871" class="st1" width="139.3388977" height="130.9785614"/>
			<g>
				<circle class="st2" cx="-0.0000003" cy="-40.9017067" r="9.640625"/>
				<circle class="st3" cx="13.6339025" cy="-27.2678051" r="9.640625"/>
				<circle class="st4" cx="-0.0000003" cy="-13.6339025" r="9.640625"/>
				<circle class="st5" cx="13.6339025" cy="-54.5356102" r="9.640625"/>
				<circle class="st2" cx="27.2678051" cy="-68.1695099" r="9.640625"/>
				<circle class="st3" cx="40.9017067" cy="-54.5356102" r="9.640625"/>
				<circle class="st4" cx="27.2678051" cy="-40.9017067" r="9.640625"/>
				<circle class="st5" cx="-0.0000003" cy="-95.4373169" r="9.640625"/>
				<circle class="st3" cx="-0.0000003" cy="-68.1695099" r="9.640625"/>
				<circle class="st4" cx="13.6339025" cy="-81.8034134" r="9.640625"/>
				<circle class="st5" cx="40.9017067" cy="-81.8034134" r="9.640625"/>
				<circle class="st2" cx="54.5356102" cy="-95.4373169" r="9.640625"/>
				<circle class="st3" cx="68.1695099" cy="-81.8034134" r="9.640625"/>
				<circle class="st4" cx="54.5356102" cy="-68.1695099" r="9.640625"/>
				<circle class="st2" cx="13.6339025" cy="-109.0712204" r="9.640625"/>
				<circle class="st3" cx="27.2678051" cy="-95.4373169" r="9.640625"/>
				<circle class="st4" cx="40.9017067" cy="-109.0712204" r="9.640625"/>
				<circle class="st5" cx="68.1695099" cy="-109.0712204" r="9.640625"/>
				<circle class="st3" cx="95.4373169" cy="-109.0712204" r="9.640625"/>
				<circle class="st4" cx="81.8034134" cy="-95.4373169" r="9.640625"/>
				<circle class="st5" cx="27.2678051" cy="-13.6339025" r="9.640625"/>
				<circle class="st2" cx="13.6339025" cy="0.0000003" r="9.640625"/>
				<circle class="st4" cx="40.9017067" cy="0.0000003" r="9.640625"/>
				<circle class="st5" cx="68.1695099" cy="0.0000003" r="9.640625"/>
				<circle class="st2" cx="81.8034134" cy="-13.6339025" r="9.640625"/>
				<circle class="st3" cx="95.4373169" cy="0.0000003" r="9.640625"/>
				<circle class="st5" cx="54.5356102" cy="-40.9017067" r="9.640625"/>
				<circle class="st2" cx="40.9017067" cy="-27.2678051" r="9.640625"/>
				<circle class="st3" cx="54.5356102" cy="-13.6339025" r="9.640625"/>
				<circle class="st4" cx="68.1695099" cy="-27.2678051" r="9.640625"/>
				<circle class="st5" cx="95.4373169" cy="-27.2678051" r="9.640625"/>
				<circle class="st2" cx="109.0712204" cy="-40.9017067" r="9.640625"/>
				<circle class="st4" cx="109.0712204" cy="-13.6339025" r="9.640625"/>
				<circle class="st5" cx="81.8034134" cy="-68.1695099" r="9.640625"/>
				<circle class="st2" cx="68.1695099" cy="-54.5356102" r="9.640625"/>
				<circle class="st3" cx="81.8034134" cy="-40.9017067" r="9.640625"/>
				<circle class="st4" cx="95.4373169" cy="-54.5356102" r="9.640625"/>
				<circle class="st5" cx="109.0712204" cy="-95.4373169" r="9.640625"/>
				<circle class="st2" cx="95.4373169" cy="-81.8034134" r="9.640625"/>
				<circle class="st3" cx="109.0712204" cy="-68.1695099" r="9.640625"/>
			</g>
		</g>
	</g>
</g>
<g>
	<g>
		<defs>
			<rect id="SVGID_19_" x="109.0712204" y="-109.0712204" width="109.0712204" height="109.0712204"/>
		</defs>
		<clipPath id="SVGID_20_">
			<use xlink:href="#SVGID_19_"  style="overflow:visible;"/>
		</clipPath>
		<g class="st14">
			<rect x="93.9373856" y="-120.0248871" class="st1" width="139.3388977" height="130.9785614"/>
			<g>
				<circle class="st2" cx="109.0712204" cy="-40.9017067" r="9.640625"/>
				<circle class="st3" cx="122.7051239" cy="-27.2678051" r="9.640625"/>
				<circle class="st4" cx="109.0712204" cy="-13.6339025" r="9.640625"/>
				<circle class="st5" cx="122.7051239" cy="-54.5356102" r="9.640625"/>
				<circle class="st2" cx="136.3390198" cy="-68.1695099" r="9.640625"/>
				<circle class="st3" cx="149.9729309" cy="-54.5356102" r="9.640625"/>
				<circle class="st4" cx="136.3390198" cy="-40.9017067" r="9.640625"/>
				<circle class="st5" cx="109.0712204" cy="-95.4373169" r="9.640625"/>
				<circle class="st3" cx="109.0712204" cy="-68.1695099" r="9.640625"/>
				<circle class="st4" cx="122.7051239" cy="-81.8034134" r="9.640625"/>
				<circle class="st5" cx="149.9729309" cy="-81.8034134" r="9.640625"/>
				<circle class="st2" cx="163.6068268" cy="-95.4373169" r="9.640625"/>
				<circle class="st3" cx="177.2407379" cy="-81.8034134" r="9.640625"/>
				<circle class="st4" cx="163.6068268" cy="-68.1695099" r="9.640625"/>
				<circle class="st2" cx="122.7051239" cy="-109.0712204" r="9.640625"/>
				<circle class="st3" cx="136.3390198" cy="-95.4373169" r="9.640625"/>
				<circle class="st4" cx="149.9729309" cy="-109.0712204" r="9.640625"/>
				<circle class="st5" cx="177.2407379" cy="-109.0712204" r="9.640625"/>
				<circle class="st3" cx="204.5085449" cy="-109.0712204" r="9.640625"/>
				<circle class="st4" cx="190.8746338" cy="-95.4373169" r="9.640625"/>
				<circle class="st5" cx="136.3390198" cy="-13.6339025" r="9.640625"/>
				<circle class="st2" cx="122.7051239" cy="0.0000003" r="9.640625"/>
				<circle class="st4" cx="149.9729309" cy="0.0000003" r="9.640625"/>
				<circle class="st5" cx="177.2407379" cy="0.0000003" r="9.640625"/>
				<circle class="st2" cx="190.8746338" cy="-13.6339025" r="9.640625"/>
				<circle class="st3" cx="204.5085449" cy="0.0000003" r="9.640625"/>
				<circle class="st5" cx="163.6068268" cy="-40.9017067" r="9.640625"/>
				<circle class="st2" cx="149.9729309" cy="-27.2678051" r="9.640625"/>
				<circle class="st3" cx="163.6068268" cy="-13.6339025" r="9.640625"/>
				<circle class="st4" cx="177.2407379" cy="-27.2678051" r="9.640625"/>
				<circle class="st5" cx="204.5085449" cy="-27.2678051" r="9.640625"/>
				<circle class="st2" cx="218.1424408" cy="-40.9017067" r="9.640625"/>
				<circle class="st4" cx="218.1424408" cy="-13.6339025" r="9.640625"/>
				<circle class="st5" cx="190.8746338" cy="-68.1695099" r="9.640625"/>
				<circle class="st2" cx="177.2407379" cy="-54.5356102" r="9.640625"/>
				<circle class="st3" cx="190.8746338" cy="-40.9017067" r="9.640625"/>
				<circle class="st4" cx="204.5085449" cy="-54.5356102" r="9.640625"/>
				<circle class="st5" cx="218.1424408" cy="-95.4373169" r="9.640625"/>
				<circle class="st2" cx="204.5085449" cy="-81.8034134" r="9.640625"/>
				<circle class="st3" cx="218.1424408" cy="-68.1695099" r="9.640625"/>
			</g>
		</g>
	</g>
</g>
<g>
	<g>
		<defs>
			<rect id="SVGID_21_" y="218.1424408" width="109.0712204" height="109.0712204"/>
		</defs>
		<clipPath id="SVGID_22_">
			<use xlink:href="#SVGID_21_"  style="overflow:visible;"/>
		</clipPath>
		<g class="st15">
			<rect x="-15.1338358" y="207.1887665" class="st1" width="139.3388977" height="130.9785614"/>
			<g>
				<circle class="st2" cx="-0.0000003" cy="286.3119507" r="9.640625"/>
				<circle class="st3" cx="13.6339025" cy="299.9458618" r="9.640625"/>
				<circle class="st4" cx="-0.0000003" cy="313.5797729" r="9.640625"/>
				<circle class="st5" cx="13.6339025" cy="272.6780396" r="9.640625"/>
				<circle class="st2" cx="27.2678051" cy="259.0441589" r="9.640625"/>
				<circle class="st3" cx="40.9017067" cy="272.6780396" r="9.640625"/>
				<circle class="st4" cx="27.2678051" cy="286.3119507" r="9.640625"/>
				<circle class="st5" cx="-0.0000003" cy="231.7763519" r="9.640625"/>
				<circle class="st3" cx="-0.0000003" cy="259.0441589" r="9.640625"/>
				<circle class="st4" cx="13.6339025" cy="245.4102478" r="9.640625"/>
				<circle class="st5" cx="40.9017067" cy="245.4102478" r="9.640625"/>
				<circle class="st2" cx="54.5356102" cy="231.7763519" r="9.640625"/>
				<circle class="st3" cx="68.1695099" cy="245.4102478" r="9.640625"/>
				<circle class="st4" cx="54.5356102" cy="259.0441589" r="9.640625"/>
				<circle class="st2" cx="13.6339025" cy="218.1424408" r="9.640625"/>
				<circle class="st3" cx="27.2678051" cy="231.7763519" r="9.640625"/>
				<circle class="st4" cx="40.9017067" cy="218.1424408" r="9.640625"/>
				<circle class="st5" cx="68.1695099" cy="218.1424408" r="9.640625"/>
				<circle class="st3" cx="95.4373169" cy="218.1424408" r="9.640625"/>
				<circle class="st4" cx="81.8034134" cy="231.7763519" r="9.640625"/>
				<circle class="st5" cx="27.2678051" cy="313.5797729" r="9.640625"/>
				<circle class="st2" cx="13.6339025" cy="327.2136536" r="9.640625"/>
				<circle class="st4" cx="40.9017067" cy="327.2136536" r="9.640625"/>
				<circle class="st5" cx="68.1695099" cy="327.2136536" r="9.640625"/>
				<circle class="st2" cx="81.8034134" cy="313.5797729" r="9.640625"/>
				<circle class="st3" cx="95.4373169" cy="327.2136536" r="9.640625"/>
				<circle class="st5" cx="54.5356102" cy="286.3119507" r="9.640625"/>
				<circle class="st2" cx="40.9017067" cy="299.9458618" r="9.640625"/>
				<circle class="st3" cx="54.5356102" cy="313.5797729" r="9.640625"/>
				<circle class="st4" cx="68.1695099" cy="299.9458618" r="9.640625"/>
				<circle class="st5" cx="95.4373169" cy="299.9458618" r="9.640625"/>
				<circle class="st2" cx="109.0712204" cy="286.3119507" r="9.640625"/>
				<circle class="st4" cx="109.0712204" cy="313.5797729" r="9.640625"/>
				<circle class="st5" cx="81.8034134" cy="259.0441589" r="9.640625"/>
				<circle class="st2" cx="68.1695099" cy="272.6780396" r="9.640625"/>
				<circle class="st3" cx="81.8034134" cy="286.3119507" r="9.640625"/>
				<circle class="st4" cx="95.4373169" cy="272.6780396" r="9.640625"/>
				<circle class="st5" cx="109.0712204" cy="231.7763519" r="9.640625"/>
				<circle class="st2" cx="95.4373169" cy="245.4102478" r="9.640625"/>
				<circle class="st3" cx="109.0712204" cy="259.0441589" r="9.640625"/>
			</g>
		</g>
	</g>
</g>
<g>
	<g>
		<defs>
			<rect id="SVGID_23_" x="109.0712204" y="218.1424408" width="109.0712204" height="109.0712204"/>
		</defs>
		<clipPath id="SVGID_24_">
			<use xlink:href="#SVGID_23_"  style="overflow:visible;"/>
		</clipPath>
		<g class="st16">
			<rect x="93.9373856" y="207.1887665" class="st1" width="139.3388977" height="130.9785614"/>
			<g>
				<circle class="st2" cx="109.0712204" cy="286.3119507" r="9.640625"/>
				<circle class="st3" cx="122.7051239" cy="299.9458618" r="9.640625"/>
				<circle class="st4" cx="109.0712204" cy="313.5797729" r="9.640625"/>
				<circle class="st5" cx="122.7051239" cy="272.6780396" r="9.640625"/>
				<circle class="st2" cx="136.3390198" cy="259.0441589" r="9.640625"/>
				<circle class="st3" cx="149.9729309" cy="272.6780396" r="9.640625"/>
				<circle class="st4" cx="136.3390198" cy="286.3119507" r="9.640625"/>
				<circle class="st5" cx="109.0712204" cy="231.7763519" r="9.640625"/>
				<circle class="st3" cx="109.0712204" cy="259.0441589" r="9.640625"/>
				<circle class="st4" cx="122.7051239" cy="245.4102478" r="9.640625"/>
				<circle class="st5" cx="149.9729309" cy="245.4102478" r="9.640625"/>
				<circle class="st2" cx="163.6068268" cy="231.7763519" r="9.640625"/>
				<circle class="st3" cx="177.2407379" cy="245.4102478" r="9.640625"/>
				<circle class="st4" cx="163.6068268" cy="259.0441589" r="9.640625"/>
				<circle class="st2" cx="122.7051239" cy="218.1424408" r="9.640625"/>
				<circle class="st3" cx="136.3390198" cy="231.7763519" r="9.640625"/>
				<circle class="st4" cx="149.9729309" cy="218.1424408" r="9.640625"/>
				<circle class="st5" cx="177.2407379" cy="218.1424408" r="9.640625"/>
				<circle class="st3" cx="204.5085449" cy="218.1424408" r="9.640625"/>
				<circle class="st4" cx="190.8746338" cy="231.7763519" r="9.640625"/>
				<circle class="st5" cx="136.3390198" cy="313.5797729" r="9.640625"/>
				<circle class="st2" cx="122.7051239" cy="327.2136536" r="9.640625"/>
				<circle class="st4" cx="149.9729309" cy="327.2136536" r="9.640625"/>
				<circle class="st5" cx="177.2407379" cy="327.2136536" r="9.640625"/>
				<circle class="st2" cx="190.8746338" cy="313.5797729" r="9.640625"/>
				<circle class="st3" cx="204.5085449" cy="327.2136536" r="9.640625"/>
				<circle class="st5" cx="163.6068268" cy="286.3119507" r="9.640625"/>
				<circle class="st2" cx="149.9729309" cy="299.9458618" r="9.640625"/>
				<circle class="st3" cx="163.6068268" cy="313.5797729" r="9.640625"/>
				<circle class="st4" cx="177.2407379" cy="299.9458618" r="9.640625"/>
				<circle class="st5" cx="204.5085449" cy="299.9458618" r="9.640625"/>
				<circle class="st2" cx="218.1424408" cy="286.3119507" r="9.640625"/>
				<circle class="st4" cx="218.1424408" cy="313.5797729" r="9.640625"/>
				<circle class="st5" cx="190.8746338" cy="259.0441589" r="9.640625"/>
				<circle class="st2" cx="177.2407379" cy="272.6780396" r="9.640625"/>
				<circle class="st3" cx="190.8746338" cy="286.3119507" r="9.640625"/>
				<circle class="st4" cx="204.5085449" cy="272.6780396" r="9.640625"/>
				<circle class="st5" cx="218.1424408" cy="231.7763519" r="9.640625"/>
				<circle class="st2" cx="204.5085449" cy="245.4102478" r="9.640625"/>
				<circle class="st3" cx="218.1424408" cy="259.0441589" r="9.640625"/>
			</g>
		</g>
	</g>
</g>
<g>
	<g>
		<defs>
			<rect id="SVGID_25_" x="218.1424408" y="109.0712204" width="109.0712204" height="109.0712204"/>
		</defs>
		<clipPath id="SVGID_26_">
			<use xlink:href="#SVGID_25_"  style="overflow:visible;"/>
		</clipPath>
		<g class="st17">
			<rect x="203.008606" y="98.1175537" class="st1" width="139.3388977" height="130.9785614"/>
			<g>
				<circle class="st2" cx="218.1424408" cy="177.2407379" r="9.640625"/>
				<circle class="st3" cx="231.7763519" cy="190.8746338" r="9.640625"/>
				<circle class="st4" cx="218.1424408" cy="204.5085449" r="9.640625"/>
				<circle class="st5" cx="231.7763519" cy="163.6068268" r="9.640625"/>
				<circle class="st2" cx="245.4102478" cy="149.9729309" r="9.640625"/>
				<circle class="st3" cx="259.0441589" cy="163.6068268" r="9.640625"/>
				<circle class="st4" cx="245.4102478" cy="177.2407379" r="9.640625"/>
				<circle class="st5" cx="218.1424408" cy="122.7051239" r="9.640625"/>
				<circle class="st3" cx="218.1424408" cy="149.9729309" r="9.640625"/>
				<circle class="st4" cx="231.7763519" cy="136.3390198" r="9.640625"/>
				<circle class="st5" cx="259.0441589" cy="136.3390198" r="9.640625"/>
				<circle class="st2" cx="272.6780396" cy="122.7051239" r="9.640625"/>
				<circle class="st3" cx="286.3119507" cy="136.3390198" r="9.640625"/>
				<circle class="st4" cx="272.6780396" cy="149.9729309" r="9.640625"/>
				<circle class="st2" cx="231.7763519" cy="109.0712204" r="9.640625"/>
				<circle class="st3" cx="245.4102478" cy="122.7051239" r="9.640625"/>
				<circle class="st4" cx="259.0441589" cy="109.0712204" r="9.640625"/>
				<circle class="st5" cx="286.3119507" cy="109.0712204" r="9.640625"/>
				<circle class="st3" cx="313.5797729" cy="109.0712204" r="9.640625"/>
				<circle class="st4" cx="299.9458618" cy="122.7051239" r="9.640625"/>
				<circle class="st5" cx="245.4102478" cy="204.5085449" r="9.640625"/>
				<circle class="st2" cx="231.7763519" cy="218.1424408" r="9.640625"/>
				<circle class="st4" cx="259.0441589" cy="218.1424408" r="9.640625"/>
				<circle class="st5" cx="286.3119507" cy="218.1424408" r="9.640625"/>
				<circle class="st2" cx="299.9458618" cy="204.5085449" r="9.640625"/>
				<circle class="st3" cx="313.5797729" cy="218.1424408" r="9.640625"/>
				<circle class="st5" cx="272.6780396" cy="177.2407379" r="9.640625"/>
				<circle class="st2" cx="259.0441589" cy="190.8746338" r="9.640625"/>
				<circle class="st3" cx="272.6780396" cy="204.5085449" r="9.640625"/>
				<circle class="st4" cx="286.3119507" cy="190.8746338" r="9.640625"/>
				<circle class="st5" cx="313.5797729" cy="190.8746338" r="9.640625"/>
				<circle class="st2" cx="327.2136536" cy="177.2407379" r="9.640625"/>
				<circle class="st4" cx="327.2136536" cy="204.5085449" r="9.640625"/>
				<circle class="st5" cx="299.9458618" cy="149.9729309" r="9.640625"/>
				<circle class="st2" cx="286.3119507" cy="163.6068268" r="9.640625"/>
				<circle class="st3" cx="299.9458618" cy="177.2407379" r="9.640625"/>
				<circle class="st4" cx="313.5797729" cy="163.6068268" r="9.640625"/>
				<circle class="st5" cx="327.2136536" cy="122.7051239" r="9.640625"/>
				<circle class="st2" cx="313.5797729" cy="136.3390198" r="9.640625"/>
				<circle class="st3" cx="327.2136536" cy="149.9729309" r="9.640625"/>
			</g>
		</g>
	</g>
</g>
<g>
	<g>
		<defs>
			<rect id="SVGID_27_" x="218.1424408" width="109.0712204" height="109.0712204"/>
		</defs>
		<clipPath id="SVGID_28_">
			<use xlink:href="#SVGID_27_"  style="overflow:visible;"/>
		</clipPath>
		<g class="st18">
			<rect x="203.008606" y="-10.9536695" class="st1" width="139.3388977" height="130.9785614"/>
			<g>
				<circle class="st2" cx="218.1424408" cy="68.1695099" r="9.640625"/>
				<circle class="st3" cx="231.7763519" cy="81.8034134" r="9.640625"/>
				<circle class="st4" cx="218.1424408" cy="95.4373169" r="9.640625"/>
				<circle class="st5" cx="231.7763519" cy="54.5356102" r="9.640625"/>
				<circle class="st2" cx="245.4102478" cy="40.9017067" r="9.640625"/>
				<circle class="st3" cx="259.0441589" cy="54.5356102" r="9.640625"/>
				<circle class="st4" cx="245.4102478" cy="68.1695099" r="9.640625"/>
				<circle class="st5" cx="218.1424408" cy="13.6339025" r="9.640625"/>
				<circle class="st3" cx="218.1424408" cy="40.9017067" r="9.640625"/>
				<circle class="st4" cx="231.7763519" cy="27.2678051" r="9.640625"/>
				<circle class="st5" cx="259.0441589" cy="27.2678051" r="9.640625"/>
				<circle class="st2" cx="272.6780396" cy="13.6339025" r="9.640625"/>
				<circle class="st3" cx="286.3119507" cy="27.2678051" r="9.640625"/>
				<circle class="st4" cx="272.6780396" cy="40.9017067" r="9.640625"/>
				<circle class="st2" cx="231.7763519" cy="-0.0000003" r="9.640625"/>
				<circle class="st3" cx="245.4102478" cy="13.6339025" r="9.640625"/>
				<circle class="st4" cx="259.0441589" cy="-0.0000003" r="9.640625"/>
				<circle class="st5" cx="286.3119507" cy="-0.0000003" r="9.640625"/>
				<circle class="st3" cx="313.5797729" cy="-0.0000003" r="9.640625"/>
				<circle class="st4" cx="299.9458618" cy="13.6339025" r="9.640625"/>
				<circle class="st5" cx="245.4102478" cy="95.4373169" r="9.640625"/>
				<circle class="st2" cx="231.7763519" cy="109.0712204" r="9.640625"/>
				<circle class="st4" cx="259.0441589" cy="109.0712204" r="9.640625"/>
				<circle class="st5" cx="286.3119507" cy="109.0712204" r="9.640625"/>
				<circle class="st2" cx="299.9458618" cy="95.4373169" r="9.640625"/>
				<circle class="st3" cx="313.5797729" cy="109.0712204" r="9.640625"/>
				<circle class="st5" cx="272.6780396" cy="68.1695099" r="9.640625"/>
				<circle class="st2" cx="259.0441589" cy="81.8034134" r="9.640625"/>
				<circle class="st3" cx="272.6780396" cy="95.4373169" r="9.640625"/>
				<circle class="st4" cx="286.3119507" cy="81.8034134" r="9.640625"/>
				<circle class="st5" cx="313.5797729" cy="81.8034134" r="9.640625"/>
				<circle class="st2" cx="327.2136536" cy="68.1695099" r="9.640625"/>
				<circle class="st4" cx="327.2136536" cy="95.4373169" r="9.640625"/>
				<circle class="st5" cx="299.9458618" cy="40.9017067" r="9.640625"/>
				<circle class="st2" cx="286.3119507" cy="54.5356102" r="9.640625"/>
				<circle class="st3" cx="299.9458618" cy="68.1695099" r="9.640625"/>
				<circle class="st4" cx="313.5797729" cy="54.5356102" r="9.640625"/>
				<circle class="st5" cx="327.2136536" cy="13.6339025" r="9.640625"/>
				<circle class="st2" cx="313.5797729" cy="27.2678051" r="9.640625"/>
				<circle class="st3" cx="327.2136536" cy="40.9017067" r="9.640625"/>
			</g>
		</g>
	</g>
</g>
<g>
	<g>
		<defs>
			<rect id="SVGID_29_" x="218.1424408" y="109.0712204" width="109.0712204" height="109.0712204"/>
		</defs>
		<clipPath id="SVGID_30_">
			<use xlink:href="#SVGID_29_"  style="overflow:visible;"/>
		</clipPath>
		<g class="st19">
			<rect x="203.008606" y="98.1175537" class="st1" width="139.3388977" height="130.9785614"/>
			<g>
				<circle class="st2" cx="218.1424408" cy="177.2407379" r="9.640625"/>
				<circle class="st3" cx="231.7763519" cy="190.8746338" r="9.640625"/>
				<circle class="st4" cx="218.1424408" cy="204.5085449" r="9.640625"/>
				<circle class="st5" cx="231.7763519" cy="163.6068268" r="9.640625"/>
				<circle class="st2" cx="245.4102478" cy="149.9729309" r="9.640625"/>
				<circle class="st3" cx="259.0441589" cy="163.6068268" r="9.640625"/>
				<circle class="st4" cx="245.4102478" cy="177.2407379" r="9.640625"/>
				<circle class="st5" cx="218.1424408" cy="122.7051239" r="9.640625"/>
				<circle class="st3" cx="218.1424408" cy="149.9729309" r="9.640625"/>
				<circle class="st4" cx="231.7763519" cy="136.3390198" r="9.640625"/>
				<circle class="st5" cx="259.0441589" cy="136.3390198" r="9.640625"/>
				<circle class="st2" cx="272.6780396" cy="122.7051239" r="9.640625"/>
				<circle class="st3" cx="286.3119507" cy="136.3390198" r="9.640625"/>
				<circle class="st4" cx="272.6780396" cy="149.9729309" r="9.640625"/>
				<circle class="st2" cx="231.7763519" cy="109.0712204" r="9.640625"/>
				<circle class="st3" cx="245.4102478" cy="122.7051239" r="9.640625"/>
				<circle class="st4" cx="259.0441589" cy="109.0712204" r="9.640625"/>
				<circle class="st5" cx="286.3119507" cy="109.0712204" r="9.640625"/>
				<circle class="st3" cx="313.5797729" cy="109.0712204" r="9.640625"/>
				<circle class="st4" cx="299.9458618" cy="122.7051239" r="9.640625"/>
				<circle class="st5" cx="245.4102478" cy="204.5085449" r="9.640625"/>
				<circle class="st2" cx="231.7763519" cy="218.1424408" r="9.640625"/>
				<circle class="st4" cx="259.0441589" cy="218.1424408" r="9.640625"/>
				<circle class="st5" cx="286.3119507" cy="218.1424408" r="9.640625"/>
				<circle class="st2" cx="299.9458618" cy="204.5085449" r="9.640625"/>
				<circle class="st3" cx="313.5797729" cy="218.1424408" r="9.640625"/>
				<circle class="st5" cx="272.6780396" cy="177.2407379" r="9.640625"/>
				<circle class="st2" cx="259.0441589" cy="190.8746338" r="9.640625"/>
				<circle class="st3" cx="272.6780396" cy="204.5085449" r="9.640625"/>
				<circle class="st4" cx="286.3119507" cy="190.8746338" r="9.640625"/>
				<circle class="st5" cx="313.5797729" cy="190.8746338" r="9.640625"/>
				<circle class="st2" cx="327.2136536" cy="177.2407379" r="9.640625"/>
				<circle class="st4" cx="327.2136536" cy="204.5085449" r="9.640625"/>
				<circle class="st5" cx="299.9458618" cy="149.9729309" r="9.640625"/>
				<circle class="st2" cx="286.3119507" cy="163.6068268" r="9.640625"/>
				<circle class="st3" cx="299.9458618" cy="177.2407379" r="9.640625"/>
				<circle class="st4" cx="313.5797729" cy="163.6068268" r="9.640625"/>
				<circle class="st5" cx="327.2136536" cy="122.7051239" r="9.640625"/>
				<circle class="st2" cx="313.5797729" cy="136.3390198" r="9.640625"/>
				<circle class="st3" cx="327.2136536" cy="149.9729309" r="9.640625"/>
			</g>
		</g>
	</g>
</g>
<g>
	<g>
		<defs>
			<rect id="SVGID_31_" x="218.1424408" width="109.0712204" height="109.0712204"/>
		</defs>
		<clipPath id="SVGID_32_">
			<use xlink:href="#SVGID_31_"  style="overflow:visible;"/>
		</clipPath>
		<g class="st20">
			<rect x="203.008606" y="-10.9536695" class="st1" width="139.3388977" height="130.9785614"/>
			<g>
				<circle class="st2" cx="218.1424408" cy="68.1695099" r="9.640625"/>
				<circle class="st3" cx="231.7763519" cy="81.8034134" r="9.640625"/>
				<circle class="st4" cx="218.1424408" cy="95.4373169" r="9.640625"/>
				<circle class="st5" cx="231.7763519" cy="54.5356102" r="9.640625"/>
				<circle class="st2" cx="245.4102478" cy="40.9017067" r="9.640625"/>
				<circle class="st3" cx="259.0441589" cy="54.5356102" r="9.640625"/>
				<circle class="st4" cx="245.4102478" cy="68.1695099" r="9.640625"/>
				<circle class="st5" cx="218.1424408" cy="13.6339025" r="9.640625"/>
				<circle class="st3" cx="218.1424408" cy="40.9017067" r="9.640625"/>
				<circle class="st4" cx="231.7763519" cy="27.2678051" r="9.640625"/>
				<circle class="st5" cx="259.0441589" cy="27.2678051" r="9.640625"/>
				<circle class="st2" cx="272.6780396" cy="13.6339025" r="9.640625"/>
				<circle class="st3" cx="286.3119507" cy="27.2678051" r="9.640625"/>
				<circle class="st4" cx="272.6780396" cy="40.9017067" r="9.640625"/>
				<circle class="st2" cx="231.7763519" cy="-0.0000003" r="9.640625"/>
				<circle class="st3" cx="245.4102478" cy="13.6339025" r="9.640625"/>
				<circle class="st4" cx="259.0441589" cy="-0.0000003" r="9.640625"/>
				<circle class="st5" cx="286.3119507" cy="-0.0000003" r="9.640625"/>
				<circle class="st3" cx="313.5797729" cy="-0.0000003" r="9.640625"/>
				<circle class="st4" cx="299.9458618" cy="13.6339025" r="9.640625"/>
				<circle class="st5" cx="245.4102478" cy="95.4373169" r="9.640625"/>
				<circle class="st2" cx="231.7763519" cy="109.0712204" r="9.640625"/>
				<circle class="st4" cx="259.0441589" cy="109.0712204" r="9.640625"/>
				<circle class="st5" cx="286.3119507" cy="109.0712204" r="9.640625"/>
				<circle class="st2" cx="299.9458618" cy="95.4373169" r="9.640625"/>
				<circle class="st3" cx="313.5797729" cy="109.0712204" r="9.640625"/>
				<circle class="st5" cx="272.6780396" cy="68.1695099" r="9.640625"/>
				<circle class="st2" cx="259.0441589" cy="81.8034134" r="9.640625"/>
				<circle class="st3" cx="272.6780396" cy="95.4373169" r="9.640625"/>
				<circle class="st4" cx="286.3119507" cy="81.8034134" r="9.640625"/>
				<circle class="st5" cx="313.5797729" cy="81.8034134" r="9.640625"/>
				<circle class="st2" cx="327.2136536" cy="68.1695099" r="9.640625"/>
				<circle class="st4" cx="327.2136536" cy="95.4373169" r="9.640625"/>
				<circle class="st5" cx="299.9458618" cy="40.9017067" r="9.640625"/>
				<circle class="st2" cx="286.3119507" cy="54.5356102" r="9.640625"/>
				<circle class="st3" cx="299.9458618" cy="68.1695099" r="9.640625"/>
				<circle class="st4" cx="313.5797729" cy="54.5356102" r="9.640625"/>
				<circle class="st5" cx="327.2136536" cy="13.6339025" r="9.640625"/>
				<circle class="st2" cx="313.5797729" cy="27.2678051" r="9.640625"/>
				<circle class="st3" cx="327.2136536" cy="40.9017067" r="9.640625"/>
			</g>
		</g>
	</g>
</g>
<g>
	<g>
		<defs>
			<rect id="SVGID_33_" x="-109.0712204" y="109.0712204" width="109.0712204" height="109.0712204"/>
		</defs>
		<clipPath id="SVGID_34_">
			<use xlink:href="#SVGID_33_"  style="overflow:visible;"/>
		</clipPath>
		<g class="st21">
			<rect x="-124.2050552" y="98.1175537" class="st1" width="139.3388977" height="130.9785614"/>
			<g>
				<circle class="st2" cx="-109.0712204" cy="177.2407379" r="9.640625"/>
				<circle class="st3" cx="-95.4373169" cy="190.8746338" r="9.640625"/>
				<circle class="st4" cx="-109.0712204" cy="204.5085449" r="9.640625"/>
				<circle class="st5" cx="-95.4373169" cy="163.6068268" r="9.640625"/>
				<circle class="st2" cx="-81.8034134" cy="149.9729309" r="9.640625"/>
				<circle class="st3" cx="-68.1695099" cy="163.6068268" r="9.640625"/>
				<circle class="st4" cx="-81.8034134" cy="177.2407379" r="9.640625"/>
				<circle class="st5" cx="-109.0712204" cy="122.7051239" r="9.640625"/>
				<circle class="st3" cx="-109.0712204" cy="149.9729309" r="9.640625"/>
				<circle class="st4" cx="-95.4373169" cy="136.3390198" r="9.640625"/>
				<circle class="st5" cx="-68.1695099" cy="136.3390198" r="9.640625"/>
				<circle class="st2" cx="-54.5356102" cy="122.7051239" r="9.640625"/>
				<circle class="st3" cx="-40.9017067" cy="136.3390198" r="9.640625"/>
				<circle class="st4" cx="-54.5356102" cy="149.9729309" r="9.640625"/>
				<circle class="st2" cx="-95.4373169" cy="109.0712204" r="9.640625"/>
				<circle class="st3" cx="-81.8034134" cy="122.7051239" r="9.640625"/>
				<circle class="st4" cx="-68.1695099" cy="109.0712204" r="9.640625"/>
				<circle class="st5" cx="-40.9017067" cy="109.0712204" r="9.640625"/>
				<circle class="st3" cx="-13.6339025" cy="109.0712204" r="9.640625"/>
				<circle class="st4" cx="-27.2678051" cy="122.7051239" r="9.640625"/>
				<circle class="st5" cx="-81.8034134" cy="204.5085449" r="9.640625"/>
				<circle class="st2" cx="-95.4373169" cy="218.1424408" r="9.640625"/>
				<circle class="st4" cx="-68.1695099" cy="218.1424408" r="9.640625"/>
				<circle class="st5" cx="-40.9017067" cy="218.1424408" r="9.640625"/>
				<circle class="st2" cx="-27.2678051" cy="204.5085449" r="9.640625"/>
				<circle class="st3" cx="-13.6339025" cy="218.1424408" r="9.640625"/>
				<circle class="st5" cx="-54.5356102" cy="177.2407379" r="9.640625"/>
				<circle class="st2" cx="-68.1695099" cy="190.8746338" r="9.640625"/>
				<circle class="st3" cx="-54.5356102" cy="204.5085449" r="9.640625"/>
				<circle class="st4" cx="-40.9017067" cy="190.8746338" r="9.640625"/>
				<circle class="st5" cx="-13.6339025" cy="190.8746338" r="9.640625"/>
				<circle class="st2" cx="0.0000003" cy="177.2407379" r="9.640625"/>
				<circle class="st4" cx="0.0000003" cy="204.5085449" r="9.640625"/>
				<circle class="st5" cx="-27.2678051" cy="149.9729309" r="9.640625"/>
				<circle class="st2" cx="-40.9017067" cy="163.6068268" r="9.640625"/>
				<circle class="st3" cx="-27.2678051" cy="177.2407379" r="9.640625"/>
				<circle class="st4" cx="-13.6339025" cy="163.6068268" r="9.640625"/>
				<circle class="st5" cx="0.0000003" cy="122.7051239" r="9.640625"/>
				<circle class="st2" cx="-13.6339025" cy="136.3390198" r="9.640625"/>
				<circle class="st3" cx="0.0000003" cy="149.9729309" r="9.640625"/>
			</g>
		</g>
	</g>
</g>
<g>
	<g>
		<defs>
			<rect id="SVGID_35_" x="-109.0712204" width="109.0712204" height="109.0712204"/>
		</defs>
		<clipPath id="SVGID_36_">
			<use xlink:href="#SVGID_35_"  style="overflow:visible;"/>
		</clipPath>
		<g class="st22">
			<rect x="-124.2050552" y="-10.9536695" class="st1" width="139.3388977" height="130.9785614"/>
			<g>
				<circle class="st2" cx="-109.0712204" cy="68.1695099" r="9.640625"/>
				<circle class="st3" cx="-95.4373169" cy="81.8034134" r="9.640625"/>
				<circle class="st4" cx="-109.0712204" cy="95.4373169" r="9.640625"/>
				<circle class="st5" cx="-95.4373169" cy="54.5356102" r="9.640625"/>
				<circle class="st2" cx="-81.8034134" cy="40.9017067" r="9.640625"/>
				<circle class="st3" cx="-68.1695099" cy="54.5356102" r="9.640625"/>
				<circle class="st4" cx="-81.8034134" cy="68.1695099" r="9.640625"/>
				<circle class="st5" cx="-109.0712204" cy="13.6339025" r="9.640625"/>
				<circle class="st3" cx="-109.0712204" cy="40.9017067" r="9.640625"/>
				<circle class="st4" cx="-95.4373169" cy="27.2678051" r="9.640625"/>
				<circle class="st5" cx="-68.1695099" cy="27.2678051" r="9.640625"/>
				<circle class="st2" cx="-54.5356102" cy="13.6339025" r="9.640625"/>
				<circle class="st3" cx="-40.9017067" cy="27.2678051" r="9.640625"/>
				<circle class="st4" cx="-54.5356102" cy="40.9017067" r="9.640625"/>
				<circle class="st2" cx="-95.4373169" cy="-0.0000003" r="9.640625"/>
				<circle class="st3" cx="-81.8034134" cy="13.6339025" r="9.640625"/>
				<circle class="st4" cx="-68.1695099" cy="-0.0000003" r="9.640625"/>
				<circle class="st5" cx="-40.9017067" cy="-0.0000003" r="9.640625"/>
				<circle class="st3" cx="-13.6339025" cy="-0.0000003" r="9.640625"/>
				<circle class="st4" cx="-27.2678051" cy="13.6339025" r="9.640625"/>
				<circle class="st5" cx="-81.8034134" cy="95.4373169" r="9.640625"/>
				<circle class="st2" cx="-95.4373169" cy="109.0712204" r="9.640625"/>
				<circle class="st4" cx="-68.1695099" cy="109.0712204" r="9.640625"/>
				<circle class="st5" cx="-40.9017067" cy="109.0712204" r="9.640625"/>
				<circle class="st2" cx="-27.2678051" cy="95.4373169" r="9.640625"/>
				<circle class="st3" cx="-13.6339025" cy="109.0712204" r="9.640625"/>
				<circle class="st5" cx="-54.5356102" cy="68.1695099" r="9.640625"/>
				<circle class="st2" cx="-68.1695099" cy="81.8034134" r="9.640625"/>
				<circle class="st3" cx="-54.5356102" cy="95.4373169" r="9.640625"/>
				<circle class="st4" cx="-40.9017067" cy="81.8034134" r="9.640625"/>
				<circle class="st5" cx="-13.6339025" cy="81.8034134" r="9.640625"/>
				<circle class="st2" cx="0.0000003" cy="68.1695099" r="9.640625"/>
				<circle class="st4" cx="0.0000003" cy="95.4373169" r="9.640625"/>
				<circle class="st5" cx="-27.2678051" cy="40.9017067" r="9.640625"/>
				<circle class="st2" cx="-40.9017067" cy="54.5356102" r="9.640625"/>
				<circle class="st3" cx="-27.2678051" cy="68.1695099" r="9.640625"/>
				<circle class="st4" cx="-13.6339025" cy="54.5356102" r="9.640625"/>
				<circle class="st5" cx="0.0000003" cy="13.6339025" r="9.640625"/>
				<circle class="st2" cx="-13.6339025" cy="27.2678051" r="9.640625"/>
				<circle class="st3" cx="0.0000003" cy="40.9017067" r="9.640625"/>
			</g>
		</g>
	</g>
</g>
<g>
	<g>
		<defs>
			<rect id="SVGID_37_" x="-109.0712204" y="109.0712204" width="109.0712204" height="109.0712204"/>
		</defs>
		<clipPath id="SVGID_38_">
			<use xlink:href="#SVGID_37_"  style="overflow:visible;"/>
		</clipPath>
		<g class="st23">
			<rect x="-124.2050552" y="98.1175537" class="st1" width="139.3388977" height="130.9785614"/>
			<g>
				<circle class="st2" cx="-109.0712204" cy="177.2407379" r="9.640625"/>
				<circle class="st3" cx="-95.4373169" cy="190.8746338" r="9.640625"/>
				<circle class="st4" cx="-109.0712204" cy="204.5085449" r="9.640625"/>
				<circle class="st5" cx="-95.4373169" cy="163.6068268" r="9.640625"/>
				<circle class="st2" cx="-81.8034134" cy="149.9729309" r="9.640625"/>
				<circle class="st3" cx="-68.1695099" cy="163.6068268" r="9.640625"/>
				<circle class="st4" cx="-81.8034134" cy="177.2407379" r="9.640625"/>
				<circle class="st5" cx="-109.0712204" cy="122.7051239" r="9.640625"/>
				<circle class="st3" cx="-109.0712204" cy="149.9729309" r="9.640625"/>
				<circle class="st4" cx="-95.4373169" cy="136.3390198" r="9.640625"/>
				<circle class="st5" cx="-68.1695099" cy="136.3390198" r="9.640625"/>
				<circle class="st2" cx="-54.5356102" cy="122.7051239" r="9.640625"/>
				<circle class="st3" cx="-40.9017067" cy="136.3390198" r="9.640625"/>
				<circle class="st4" cx="-54.5356102" cy="149.9729309" r="9.640625"/>
				<circle class="st2" cx="-95.4373169" cy="109.0712204" r="9.640625"/>
				<circle class="st3" cx="-81.8034134" cy="122.7051239" r="9.640625"/>
				<circle class="st4" cx="-68.1695099" cy="109.0712204" r="9.640625"/>
				<circle class="st5" cx="-40.9017067" cy="109.0712204" r="9.640625"/>
				<circle class="st3" cx="-13.6339025" cy="109.0712204" r="9.640625"/>
				<circle class="st4" cx="-27.2678051" cy="122.7051239" r="9.640625"/>
				<circle class="st5" cx="-81.8034134" cy="204.5085449" r="9.640625"/>
				<circle class="st2" cx="-95.4373169" cy="218.1424408" r="9.640625"/>
				<circle class="st4" cx="-68.1695099" cy="218.1424408" r="9.640625"/>
				<circle class="st5" cx="-40.9017067" cy="218.1424408" r="9.640625"/>
				<circle class="st2" cx="-27.2678051" cy="204.5085449" r="9.640625"/>
				<circle class="st3" cx="-13.6339025" cy="218.1424408" r="9.640625"/>
				<circle class="st5" cx="-54.5356102" cy="177.2407379" r="9.640625"/>
				<circle class="st2" cx="-68.1695099" cy="190.8746338" r="9.640625"/>
				<circle class="st3" cx="-54.5356102" cy="204.5085449" r="9.640625"/>
				<circle class="st4" cx="-40.9017067" cy="190.8746338" r="9.640625"/>
				<circle class="st5" cx="-13.6339025" cy="190.8746338" r="9.640625"/>
				<circle class="st2" cx="0.0000003" cy="177.2407379" r="9.640625"/>
				<circle class="st4" cx="0.0000003" cy="204.5085449" r="9.640625"/>
				<circle class="st5" cx="-27.2678051" cy="149.9729309" r="9.640625"/>
				<circle class="st2" cx="-40.9017067" cy="163.6068268" r="9.640625"/>
				<circle class="st3" cx="-27.2678051" cy="177.2407379" r="9.640625"/>
				<circle class="st4" cx="-13.6339025" cy="163.6068268" r="9.640625"/>
				<circle class="st5" cx="0.0000003" cy="122.7051239" r="9.640625"/>
				<circle class="st2" cx="-13.6339025" cy="136.3390198" r="9.640625"/>
				<circle class="st3" cx="0.0000003" cy="149.9729309" r="9.640625"/>
			</g>
		</g>
	</g>
</g>
<g>
	<g>
		<defs>
			<rect id="SVGID_39_" x="-109.0712204" width="109.0712204" height="109.0712204"/>
		</defs>
		<clipPath id="SVGID_40_">
			<use xlink:href="#SVGID_39_"  style="overflow:visible;"/>
		</clipPath>
		<g class="st24">
			<rect x="-124.2050552" y="-10.9536695" class="st1" width="139.3388977" height="130.9785614"/>
			<g>
				<circle class="st2" cx="-109.0712204" cy="68.1695099" r="9.640625"/>
				<circle class="st3" cx="-95.4373169" cy="81.8034134" r="9.640625"/>
				<circle class="st4" cx="-109.0712204" cy="95.4373169" r="9.640625"/>
				<circle class="st5" cx="-95.4373169" cy="54.5356102" r="9.640625"/>
				<circle class="st2" cx="-81.8034134" cy="40.9017067" r="9.640625"/>
				<circle class="st3" cx="-68.1695099" cy="54.5356102" r="9.640625"/>
				<circle class="st4" cx="-81.8034134" cy="68.1695099" r="9.640625"/>
				<circle class="st5" cx="-109.0712204" cy="13.6339025" r="9.640625"/>
				<circle class="st3" cx="-109.0712204" cy="40.9017067" r="9.640625"/>
				<circle class="st4" cx="-95.4373169" cy="27.2678051" r="9.640625"/>
				<circle class="st5" cx="-68.1695099" cy="27.2678051" r="9.640625"/>
				<circle class="st2" cx="-54.5356102" cy="13.6339025" r="9.640625"/>
				<circle class="st3" cx="-40.9017067" cy="27.2678051" r="9.640625"/>
				<circle class="st4" cx="-54.5356102" cy="40.9017067" r="9.640625"/>
				<circle class="st2" cx="-95.4373169" cy="-0.0000003" r="9.640625"/>
				<circle class="st3" cx="-81.8034134" cy="13.6339025" r="9.640625"/>
				<circle class="st4" cx="-68.1695099" cy="-0.0000003" r="9.640625"/>
				<circle class="st5" cx="-40.9017067" cy="-0.0000003" r="9.640625"/>
				<circle class="st3" cx="-13.6339025" cy="-0.0000003" r="9.640625"/>
				<circle class="st4" cx="-27.2678051" cy="13.6339025" r="9.640625"/>
				<circle class="st5" cx="-81.8034134" cy="95.4373169" r="9.640625"/>
				<circle class="st2" cx="-95.4373169" cy="109.0712204" r="9.640625"/>
				<circle class="st4" cx="-68.1695099" cy="109.0712204" r="9.640625"/>
				<circle class="st5" cx="-40.9017067" cy="109.0712204" r="9.640625"/>
				<circle class="st2" cx="-27.2678051" cy="95.4373169" r="9.640625"/>
				<circle class="st3" cx="-13.6339025" cy="109.0712204" r="9.640625"/>
				<circle class="st5" cx="-54.5356102" cy="68.1695099" r="9.640625"/>
				<circle class="st2" cx="-68.1695099" cy="81.8034134" r="9.640625"/>
				<circle class="st3" cx="-54.5356102" cy="95.4373169" r="9.640625"/>
				<circle class="st4" cx="-40.9017067" cy="81.8034134" r="9.640625"/>
				<circle class="st5" cx="-13.6339025" cy="81.8034134" r="9.640625"/>
				<circle class="st2" cx="0.0000003" cy="68.1695099" r="9.640625"/>
				<circle class="st4" cx="0.0000003" cy="95.4373169" r="9.640625"/>
				<circle class="st5" cx="-27.2678051" cy="40.9017067" r="9.640625"/>
				<circle class="st2" cx="-40.9017067" cy="54.5356102" r="9.640625"/>
				<circle class="st3" cx="-27.2678051" cy="68.1695099" r="9.640625"/>
				<circle class="st4" cx="-13.6339025" cy="54.5356102" r="9.640625"/>
				<circle class="st5" cx="0.0000003" cy="13.6339025" r="9.640625"/>
				<circle class="st2" cx="-13.6339025" cy="27.2678051" r="9.640625"/>
				<circle class="st3" cx="0.0000003" cy="40.9017067" r="9.640625"/>
			</g>
		</g>
	</g>
</g>
</svg>
